<?xml version="1.0" encoding="UTF-8" standalone="no"?>
<svg
   xmlns:dc="http://purl.org/dc/elements/1.1/"
   xmlns:cc="http://creativecommons.org/ns#"
   xmlns:rdf="http://www.w3.org/1999/02/22-rdf-syntax-ns#"
   xmlns:svg="http://www.w3.org/2000/svg"
   xmlns="http://www.w3.org/2000/svg"
   xmlns:sodipodi="http://sodipodi.sourceforge.net/DTD/sodipodi-0.dtd"
   xmlns:inkscape="http://www.inkscape.org/namespaces/inkscape"
   viewBox="0 0 54 49"
   version="1.1"
   id="svg3719"
   sodipodi:docname="Logo-logo.svg"
   width="54"
   height="49"
   inkscape:version="0.92.2 (5c3e80d, 2017-08-06)">
  <metadata
     id="metadata3725">
    <rdf:RDF>
      <cc:Work
         rdf:about="">
        <dc:format>image/svg+xml</dc:format>
        <dc:type
           rdf:resource="http://purl.org/dc/dcmitype/StillImage" />
        <dc:title></dc:title>
      </cc:Work>
    </rdf:RDF>
  </metadata>
  <defs
     id="defs3723" />
  <sodipodi:namedview
     pagecolor="#ffffff"
     bordercolor="#666666"
     borderopacity="1"
     objecttolerance="10"
     gridtolerance="10"
     guidetolerance="10"
     inkscape:pageopacity="0"
     inkscape:pageshadow="2"
     inkscape:window-width="1920"
     inkscape:window-height="1001"
     id="namedview3721"
     showgrid="false"
     inkscape:pagecheckerboard="true"
     inkscape:zoom="4.8618785"
     inkscape:cx="183.05682"
     inkscape:cy="24.705682"
     inkscape:window-x="-9"
     inkscape:window-y="-9"
     inkscape:window-maximized="1"
     inkscape:current-layer="svg3719" />
  <g
     id="g3717"
     style="fill:#ffffff;fill-rule:evenodd">
    <path
       d="m 26.976562,0.00195313 c -0.230599,-7.0001e-4 -0.460706,2.0624e-4 -0.691406,0.00390625 -0.4575,0.0101 -0.916447,0.02864687 -1.373047,0.06054687 -0.8438,0.0589 -1.683078,0.158375 -2.517578,0.296875 -2.386,0.3957 -4.717003,1.11877815 -6.908203,2.14257815 -2.73,1.2755 -5.238831,3.0141406 -7.3945311,5.1191406 -2.154,2.1033 -3.9524688,4.567772 -5.2929688,7.263672 -1.1236,2.2597 -1.92298748,4.677909 -2.36718748,7.162109 -0.5098,2.8509 -0.55466562,5.786944 -0.13476562,8.652344 0.3987,2.7206 1.2204875,5.37425 2.4296875,7.84375 1.3951,2.8491 3.2999031,5.443812 5.5957031,7.632813 0.7378,0.703399 1.515625,1.365468 2.3281254,1.980468 v -1.728515 c -0.5573,-0.4586 -1.0947285,-0.940813 -1.6113285,-1.445313 -2.1928,-2.1413 -3.9951687,-4.676225 -5.2929687,-7.453125 -1.0846001,-2.3208 -1.8129438,-4.80475 -2.1523438,-7.34375 -0.3714,-2.7777 -0.2834812,-5.618187 0.2617188,-8.367187 0.475,-2.3951 1.2995531,-4.717754 2.4394531,-6.876954 1.3099,-2.4815 3.0319187,-4.742115 5.0742187,-6.6660151 2.0463004,-1.9276 4.4111564,-3.5150281 6.9726564,-4.6738281 2.1429,-0.9694001 4.418994,-1.6375157 6.746094,-1.9785157 1.1759,-0.1724 2.362581,-0.2586312 3.550781,-0.2695312 0.2191,-8e-4 0.43705,4.062e-4 0.65625,0.00391 0.3805,0.0085 0.760725,0.022675 1.140625,0.046875 0.8025,0.051 1.602484,0.1408781 2.396484,0.2675781 2.3192,0.3698 4.585191,1.0643938 6.712891,2.0585938 2.4538,1.1466 4.720206,2.6878219 6.691406,4.5449219 2.1921,2.0650003 4.014469,4.5161913 5.355469,7.2128913 1.0664,2.144499 1.826247,4.441128 2.248047,6.798828 0.4843,2.7072 0.525653,5.493843 0.126953,8.214843 -0.3708,2.531 -1.127381,5.002341 -2.238281,7.306641 -1.3307,2.7599 -3.16366,5.272419 -5.38086,7.386719 -0.4489,0.428 -0.913778,0.838422 -1.392578,1.232422 v 1.728515 c 0.8979,-0.6796 1.752494,-1.416025 2.558594,-2.203125 2.2704,-2.217 4.145059,-4.836125 5.505859,-7.703125 1.1808,-2.4876 1.971038,-5.155465 2.335938,-7.884765 0.391,-2.925 0.300662,-5.915847 -0.273438,-8.810547 -0.5005,-2.5237 -1.371165,-4.972847 -2.572265,-7.248047 -1.4046,-2.6607 -3.258938,-5.0788066 -5.460938,-7.1289066 -2.1278,-1.9808 -4.575809,-3.6141 -7.224609,-4.8125 -2.2068,-0.9984 -4.54906,-1.69239372 -6.94336,-2.05859372 -0.8381,-0.1282 -1.682797,-0.21732501 -2.529297,-0.26562501 -0.458199,-0.0262 -0.9161,-0.03856874 -1.375,-0.04296874 z"
       id="path3942"
       inkscape:connector-curvature="0" />
    <path
       d="m 78.007812,35.697266 c -0.153401,0.0039 -0.614011,9.06e-4 -0.460937,0.01172 0.07194,0.0051 0.307042,0.01101 0.488281,0.01758 v -0.02734 c -0.01696,-0.0016 -0.0083,-1.34e-4 -0.02734,-0.002 z"
       id="path3810"
       inkscape:connector-curvature="0" />
    <path
       d="m 82.033203,37.392578 c 0.01183,0.01771 0.03174,0.04567 0.04297,0.0625 0.01396,0.0168 0.02498,0.03603 0.03906,0.05273 0.02298,0.02725 -0.0643,-0.09359 -0.05859,-0.08984 -0.0075,-0.008 -0.01578,-0.01719 -0.02344,-0.02539 z"
       id="path3808"
       inkscape:connector-curvature="0" />
    <path
       d="m 14.845,40.636 -4.2565,3.1658 v -31.756 c 2.1409,0 4.2829,-0.0688 6.4226,0.0012 0.0362,0.002 0.0721,0.0051 0.1081,0.0095 0.1056,0.015 0.2086,0.041 0.3075,0.0813 0.2591,0.1056 0.4788,0.2989 0.6163,0.5426 0.0621,0.11 0.1053,0.2282 0.1331,0.3512 0.6671,1.9755 1.3347,3.9508 2.0013,5.9265 0.0367,0.1085 0.0703,0.218 0.1077,0.3264 0.1215,0.3379 0.2668,0.6934 0.5441,0.9356 0.0588,0.0514 0.1229,0.0967 0.1911,0.1347 0.2179,0.1214 0.4697,0.1629 0.7167,0.1627 0.1603,0 0.3214,-0.0168 0.4757,-0.0611 0.165,-0.0474 0.3192,-0.1275 0.4498,-0.2392 0.262,-0.224 0.4122,-0.5489 0.5212,-0.8689 0.028,-0.0825 0.0535,-0.1658 0.0774,-0.2495 0.0251,-0.0879 0.0479,-0.1764 0.0706,-0.265 l 0.9108,-3.4409 c -0.1796,0 -0.3606,-0.0028 -0.5407,0.0014 -0.0549,0.0024 -0.1094,0.0059 -0.1642,0.0107 -0.2046,0.0225 -0.4049,0.0664 -0.596,0.1438 -0.1058,0.0429 -0.2077,0.0949 -0.3045,0.1555 -0.5386,0.3373 -0.873,0.9107 -1.0897,1.4929 -0.0371,0.0996 -0.0705,0.2003 -0.1023,0.3016 0,-1.0093 -0.0119,-2.0188 8e-4,-3.0281 0.0082,-0.2196 0.0382,-0.4361 0.0918,-0.6493 0.0445,-0.1771 0.1033,-0.3505 0.1745,-0.5186 0.054,-0.1277 0.1153,-0.2525 0.1833,-0.3734 0.0566,-0.1005 0.1179,-0.1984 0.1838,-0.293 0.3494,-0.5015 0.8531,-0.9459 1.4657,-1.0735 0.1022,-0.0213 0.2056,-0.0322 0.3099,-0.0352 1.2782,-0.0122 2.5566,-0.0148 3.8348,10e-5 0.1563,0.0055 0.3101,0.0305 0.4585,0.0806 0.3987,0.1343 0.7324,0.4326 0.9104,0.8137 0.0716,0.1532 0.115,0.3158 0.1359,0.4833 l 1.0547,5.9284 c 0.0227,0.0886 0.0455,0.1771 0.0706,0.265 0.0239,0.0837 0.0494,0.167 0.0774,0.2495 0.098,0.2876 0.228,0.5772 0.4439,0.7967 0.0661,0.0673 0.14,0.1271 0.2202,0.1768 0.234,0.1449 0.5105,0.1956 0.7826,0.1957 0.2584,2e-4 0.5218,-0.0455 0.7461,-0.1797 0.0763,-0.0456 0.1468,-0.1006 0.2104,-0.1627 0.133,-0.1301 0.234,-0.2891 0.3163,-0.455 0.1078,-0.2173 0.1855,-0.4478 0.2602,-0.6781 0.6389,-2.0156 1.3514,-4.0071 2.0279,-6.0104 0.0081,-0.0357 0.0172,-0.0708 0.0276,-0.1059 0.011,-0.0343 0.023,-0.068 0.0362,-0.1016 0.0409,-0.098 0.0919,-0.1907 0.1554,-0.2759 0.162,-0.2173 0.3944,-0.3785 0.6548,-0.4536 0.1128,-0.0325 0.2287,-0.0475 0.3459,-0.0488 h 6.3677 v 31.756 l -6.8217,-5.0737 h -0.1684 v -0.1253 l -2.5876,-1.9246 0.0083,-9.1536 c -0.0049,-0.0215 -0.0111,-0.042 -0.0188,-0.0626 -0.019,-0.0448 -0.0442,-0.0857 -0.0778,-0.1211 -0.0988,-0.1041 -0.251,-0.1462 -0.3883,-0.1022 -0.0355,0.0113 -0.0693,0.0281 -0.0999,0.0493 -0.0348,0.0242 -0.0655,0.0542 -0.0905,0.0883 -0.0322,0.0441 -0.0529,0.0935 -0.065,0.1465 l -2.1386,12.852 -3.7513,3.2695 -3.7283,-3.2695 c -0.723,-4.2893 -1.2033,-8.6266 -2.17,-12.868 -0.0058,-0.021 -0.0127,-0.0412 -0.0212,-0.0613 -0.0229,-0.0485 -0.0532,-0.0919 -0.0933,-0.1278 -0.0315,-0.0284 -0.0679,-0.0515 -0.107,-0.0678 -0.035,-0.0146 -0.0722,-0.0239 -0.11,-0.0273 -0.1369,-0.0123 -0.2721,0.0549 -0.3486,0.1683 -0.0276,0.0409 -0.0455,0.0859 -0.0565,0.1338 l 0.0084,9.1536 -5.2456,3.9014 v 0.0564 H 14.845 Z M 27.643,12.883 h -3.7505 c -0.0763,9e-4 -0.1467,0.0259 -0.2134,0.0611 -0.0859,0.0454 -0.1635,0.1057 -0.2344,0.1716 -0.1056,0.0983 -0.1973,0.2112 -0.2773,0.3309 -0.1439,0.2153 -0.2494,0.4541 -0.3148,0.7044 l -5e-4,0.0019 c 0.0689,-0.0177 0.0687,-0.0173 0.1382,-0.0332 0.0818,-0.0167 0.0815,-0.0166 0.1633,-0.0313 0.1386,-0.0219 0.2774,-0.0385 0.4175,-0.0462 0.2227,-0.0123 0.449,-0.0058 0.6709,-0.0058 l 0.1304,0.0063 c 0.043,0.0062 0.0864,0.0104 0.1291,0.0188 0.1282,0.025 0.2527,0.0686 0.3684,0.129 0.39,0.2038 0.6618,0.5945 0.7173,1.031 0.0165,0.1296 0.0141,0.2614 -0.007,0.3903 -0.0071,0.0429 -0.0182,0.0851 -0.0273,0.1276 -0.3201,1.2094 -0.638,2.4193 -0.9597,3.6282 -0.0698,0.251 -0.147,0.4997 -0.2485,0.7399 -0.1631,0.386 -0.3871,0.7482 -0.6907,1.0398 -0.2808,0.2698 -0.6218,0.4714 -0.9928,0.5896 -0.3223,0.1027 -0.662,0.1427 -0.9996,0.1356 -0.3006,-0.0064 -0.6009,-0.0522 -0.886,-0.149 -0.3078,-0.1047 -0.594,-0.2684 -0.839,-0.4823 -0.3056,-0.2669 -0.5378,-0.6048 -0.7122,-0.9691 -0.1261,-0.2635 -0.2223,-0.5392 -0.3122,-0.8166 -0.6362,-2.0091 -1.3471,-3.9938 -2.0214,-5.9904 l -0.0196,-0.0636 h -4.9271 v 27.702 l 1.6201,-1.205 v -17.818 h 1.356 v 16.81 l 1.2735,-0.9471 v -12.486 h 1.356 v 11.477 l 1.2594,-0.9367 -0.0078,-8.4714 0.0038,-0.1023 c 0.0094,-0.0834 0.0199,-0.1656 0.0409,-0.2471 0.0377,-0.146 0.0928,-0.2869 0.1663,-0.4187 0.106,-0.1903 0.2483,-0.36 0.4166,-0.4982 0.1492,-0.1226 0.3189,-0.2202 0.5,-0.2872 0.1423,-0.0526 0.2916,-0.0868 0.4427,-0.1006 0.5257,-0.048 1.0553,0.1535 1.4175,0.5373 0.1677,0.1777 0.2973,0.3914 0.3773,0.6223 0.0259,0.0748 0.0445,0.1508 0.0621,0.2279 l 2.0925,12.414 2.474,2.1697 2.4908,-2.1709 2.0653,-12.411 0.0194,-0.0848 c 0.0267,-0.0969 0.057,-0.1916 0.0981,-0.2836 0.0694,-0.1555 0.162,-0.3005 0.2736,-0.4291 0.1109,-0.1279 0.2404,-0.2395 0.3835,-0.3301 0.364,-0.2305 0.8098,-0.3178 1.2339,-0.2406 0.1465,0.0266 0.2899,0.0725 0.4248,0.1356 0.1752,0.0821 0.3366,0.1938 0.4753,0.3285 0.1569,0.1525 0.2847,0.3343 0.3745,0.5338 0.0621,0.1379 0.1071,0.2844 0.1295,0.4341 0.0132,0.089 0.0116,0.1117 0.0148,0.2014 l -0.0077,8.4714 1.231,0.9156 v -11.049 h 1.3561 v 12.057 l 1.2625,0.939 v -17.166 h 1.3561 v 18.175 l 1.6593,1.2342 v -27.702 h -4.927 c -0.6215,2.0095 -1.3447,3.9856 -2.017,5.9782 -0.0399,0.1181 -0.0767,0.2371 -0.1174,0.3549 -0.0782,0.2177 -0.1631,0.4328 -0.2691,0.6387 -0.1787,0.3471 -0.4145,0.6653 -0.7169,0.9145 -0.2914,0.24 -0.6357,0.4087 -1.0018,0.4993 -0.2427,0.0601 -0.4931,0.0862 -0.7429,0.0862 -0.2867,0 -0.5739,-0.0345 -0.8499,-0.1137 -0.3267,-0.0937 -0.6341,-0.2504 -0.8991,-0.4637 -0.4039,-0.325 -0.6891,-0.767 -0.8825,-1.2438 -0.1226,-0.3023 -0.2093,-0.6163 -0.2898,-0.9319 -0.3566,-2.0042 -0.7141,-4.0083 -1.0698,-6.0127 -0.0056,-0.0319 -0.0055,-0.0616 -0.0152,-0.092 -0.0246,-0.0708 -0.0876,-0.1214 -0.1618,-0.131 -0.0107,-0.0012 -0.0214,-0.0015 -0.0326,-0.0015 z m -1.5361,23.02 H 27.463 V 23.039 h -1.3561 z"
       id="path3715"
       inkscape:connector-curvature="0" />
  </g>
</svg>
