<?xml version="1.0" encoding="UTF-8"?>
<svg viewBox="0 0 362 49" xmlns="http://www.w3.org/2000/svg">
  <g fill="#FFF" fill-rule="evenodd">
    <path d="m179.82 23.128c0 0.6501-0.142 1.3099-0.425 1.9791-0.284 0.6693-0.687 1.2239-1.21 1.6637l-1.061-0.7075c0.299-0.4526 0.524-0.9131 0.674-1.3816s0.225-0.9769 0.225-1.525v-1.1378h1.797v1.1091zm163.74 0c0 0.6501-0.142 1.3099-0.426 1.9791-0.283 0.6693-0.686 1.2239-1.209 1.6637l-1.061-0.7075c0.299-0.4526 0.524-0.9131 0.674-1.3816 0.149-0.4685 0.224-0.9769 0.224-1.525v-1.1378h1.798v1.1091zm-227.11-7.1327c0-1.6636 0.364-3.0054 1.09-4.0253 0.727-1.0198 1.731-1.5298 3.012-1.5298 0.65 0 1.221 0.1275 1.712 0.3825 0.49 0.255 0.902 0.6247 1.233 1.1091l0.172-1.3003h1.587v10.211c0 1.3386-0.373 2.3919-1.118 3.16-0.746 0.7681-1.807 1.1522-3.184 1.1522-0.497 0-1.036-0.0686-1.616-0.2056-0.58-0.1371-1.09-0.3235-1.53-0.5593l0.488-1.4629c0.35 0.1848 0.765 0.3378 1.243 0.4589s0.943 0.1817 1.396 0.1817c0.841 0 1.458-0.2359 1.85-0.7075 0.392-0.4717 0.588-1.1442 0.588-2.0175v-0.9848c-0.338 0.4335-0.743 0.7617-1.215 0.9848-0.471 0.2231-1.013 0.3347-1.625 0.3347-1.268 0-2.266-0.459-2.993-1.3768-0.726-0.9179-1.09-2.1194-1.09-3.6046v-0.2008zm215.51 8.9589h-5v-1.2143l1.558-0.2677v-11.359l-1.558-0.2678v-1.2142h3.174l0.172 1.262c0.344-0.4716 0.763-0.8318 1.257-1.0804s1.066-0.3729 1.717-0.3729c1.281 0 2.277 0.5084 2.987 1.5251 0.711 1.0166 1.066 2.36 1.066 4.03v0.2008c0 1.4915-0.356 2.6947-1.07 3.6094-0.714 0.9146-1.699 1.372-2.955 1.372-0.637 0-1.197-0.1068-1.678-0.3203s-0.891-0.5307-1.228-0.9514v3.5664l1.558 0.2677v1.2143zm-261.29-13.787h-1.4246l-0.3538-1.9887c-0.2868-0.2423-0.6693-0.443-1.1474-0.6024-0.478-0.1593-1.0326-0.239-1.6636-0.239-1.0007 0-1.7688 0.2119-2.3043 0.6358-0.5354 0.4239-0.8031 0.9768-0.8031 1.6589 0 0.6055 0.2725 1.1107 0.8175 1.5154 0.545 0.4048 1.4262 0.7601 2.6437 1.0661 1.466 0.3633 2.5799 0.8988 3.3416 1.6063s1.1426 1.584 1.1426 2.6293c0 1.1219-0.4574 2.0238-1.3721 2.7058-0.9147 0.6821-2.1114 1.0231-3.5902 1.0231-1.0709 0-2.0222-0.1753-2.854-0.5259s-1.5091-0.8095-2.0318-1.3768v-2.5911h1.4151l0.3633 1.9983c0.3633 0.2996 0.7968 0.545 1.3003 0.7362 0.5036 0.1912 1.1059 0.2869 1.8071 0.2869 0.9497 0 1.7003-0.2008 2.2517-0.6024 0.5513-0.4016 0.827-0.9466 0.827-1.635 0-0.6374-0.239-1.1712-0.7171-1.6015-0.478-0.4302-1.3226-0.792-2.5337-1.0852-1.4724-0.3505-2.623-0.8668-3.4516-1.5489-0.8286-0.682-1.243-1.5393-1.243-2.5719 0-1.09 0.4622-1.9967 1.3864-2.7202 0.9243-0.7235 2.1258-1.0852 3.6046-1.0852 0.9752 0 1.8628 0.1673 2.6628 0.502 0.7999 0.3346 1.4421 0.7409 1.9266 1.219v2.5911zm283.94 5.077l-0.029 0.0478c0.019 0.9944 0.271 1.8119 0.755 2.4525 0.485 0.6406 1.164 0.9609 2.037 0.9609 0.637 0 1.197-0.0909 1.678-0.2725 0.481-0.1817 0.897-0.4319 1.248-0.7506l0.736 1.2238c-0.37 0.357-0.859 0.6582-1.468 0.9036s-1.34 0.3681-2.194 0.3681c-1.441 0-2.587-0.4797-3.437-1.439-0.851-0.9593-1.277-2.2038-1.277-3.7336v-0.4207c0-1.4724 0.438-2.6979 1.315-3.6763 0.876-0.9784 1.914-1.4677 3.112-1.4677 1.39 0 2.443 0.4207 3.16 1.2621s1.076 1.9633 1.076 3.3656v1.176h-6.712zm-140.06-2.5528h-1.453v-2.0079c0.472-0.3761 1.042-0.6772 1.712-0.9035 0.669-0.2263 1.395-0.3395 2.18-0.3395 1.172 0 2.122 0.2996 2.849 0.8988 0.726 0.5992 1.09 1.4565 1.09 2.572v4.9814c0 0.1338 1e-3 0.2645 5e-3 0.392 3e-3 0.1274 0.011 0.2549 0.023 0.3824l0.765 0.1052v1.2047h-2.466c-0.058-0.2805-0.102-0.5322-0.134-0.7553s-0.055-0.4462-0.067-0.6693c-0.364 0.4653-0.818 0.8525-1.363 1.1617-0.545 0.3091-1.126 0.4637-1.745 0.4637-1.077 0-1.896-0.2629-2.457-0.7888s-0.841-1.2669-0.841-2.223c0-0.9816 0.397-1.7385 1.19-2.2708 0.794-0.5322 1.882-0.7983 3.265-0.7983h1.941v-1.2048c0-0.6055-0.191-1.0852-0.574-1.4389-0.382-0.3538-0.914-0.5307-1.596-0.5307-0.472 0-0.888 0.0606-1.248 0.1817s-0.652 0.2868-0.875 0.4972l-0.201 1.09zm-78.545 0h-1.453v-2.0079c0.471-0.3761 1.042-0.6772 1.711-0.9035s1.396-0.3395 2.18-0.3395c1.173 0 2.123 0.2996 2.849 0.8988 0.727 0.5992 1.09 1.4565 1.09 2.572v4.9814c0 0.1338 2e-3 0.2645 5e-3 0.392 3e-3 0.1274 0.011 0.2549 0.024 0.3824l0.765 0.1052v1.2047h-2.467c-0.057-0.2805-0.102-0.5322-0.134-0.7553s-0.054-0.4462-0.067-0.6693c-0.363 0.4653-0.817 0.8525-1.362 1.1617-0.545 0.3091-1.127 0.4637-1.745 0.4637-1.077 0-1.896-0.2629-2.457-0.7888s-0.842-1.2669-0.842-2.223c0-0.9816 0.397-1.7385 1.191-2.2708 0.793-0.5322 1.882-0.7983 3.265-0.7983h1.941v-1.2048c0-0.6055-0.191-1.0852-0.574-1.4389-0.382-0.3538-0.915-0.5307-1.597-0.5307-0.471 0-0.887 0.0606-1.247 0.1817s-0.652 0.2868-0.875 0.4972l-0.201 1.09zm139.34-5.5551v2.4955h1.96v1.3959h-1.96v6.2817c0 0.4845 0.1 0.8255 0.301 1.0231s0.467 0.2964 0.798 0.2964c0.166 0 0.352-0.0144 0.559-0.0431 0.208-0.0286 0.381-0.0589 0.522-0.0908l0.258 1.2908c-0.179 0.1147-0.44 0.2087-0.784 0.282-0.345 0.0733-0.689 0.11-1.033 0.11-0.765 0-1.374-0.2311-1.826-0.6932-0.453-0.4621-0.679-1.1872-0.679-2.1752v-6.2817h-1.635v-1.3959h1.635v-2.4955h1.884zm50.358 12.841h-2.877l-0.125-1.5298c-0.325 0.5546-0.744 0.9816-1.257 1.2812s-1.104 0.4494-1.774 0.4494c-1.121 0-1.998-0.3602-2.629-1.0804-0.631-0.7203-0.947-1.8422-0.947-3.3656v-4.618l-1.185-0.2678v-1.2142h3.069v6.1191c0 1.1028 0.163 1.8613 0.488 2.2756s0.831 0.6215 1.52 0.6215c0.669 0 1.222-0.1355 1.659-0.4064 0.436-0.2709 0.766-0.6549 0.989-1.1521v-5.9757l-1.386-0.2678v-1.2142h3.27v8.8728l1.185 0.2677v1.2047zm-147.1-10.345h1.96v1.3959h-1.96v6.2817c0 0.4845 0.101 0.8255 0.301 1.0231 0.201 0.1976 0.467 0.2964 0.799 0.2964 0.166 0 0.352-0.0144 0.559-0.0431 0.207-0.0286 0.381-0.0589 0.521-0.0908l0.258 1.2908c-0.178 0.1147-0.439 0.2087-0.784 0.282-0.344 0.0733-0.688 0.11-1.032 0.11-0.765 0-1.374-0.2311-1.826-0.6932-0.453-0.4621-0.679-1.1872-0.679-2.1752v-6.2817h-1.635v-1.3959h1.635v-2.4955h1.883v2.4955zm52.902 3.0596h-1.453v-2.0079c0.472-0.3761 1.042-0.6772 1.712-0.9035 0.669-0.2263 1.396-0.3395 2.18-0.3395 1.172 0 2.122 0.2996 2.849 0.8988 0.726 0.5992 1.09 1.4565 1.09 2.572v4.9814c0 0.1338 1e-3 0.2645 5e-3 0.392 3e-3 0.1274 0.011 0.2549 0.023 0.3824l0.765 0.1052v1.2047h-2.466c-0.058-0.2805-0.102-0.5322-0.134-0.7553s-0.054-0.4462-0.067-0.6693c-0.364 0.4653-0.818 0.8525-1.363 1.1617-0.545 0.3091-1.126 0.4637-1.745 0.4637-1.077 0-1.896-0.2629-2.457-0.7888s-0.841-1.2669-0.841-2.223c0-0.9816 0.397-1.7385 1.19-2.2708 0.794-0.5322 1.882-0.7983 3.265-0.7983h1.941v-1.2048c0-0.6055-0.191-1.0852-0.573-1.4389-0.383-0.3538-0.915-0.5307-1.597-0.5307-0.472 0-0.888 0.0606-1.248 0.1817s-0.652 0.2868-0.875 0.4972l-0.201 1.09zm-64.93 0h-1.453v-2.0079c0.472-0.3761 1.042-0.6772 1.711-0.9035 0.67-0.2263 1.396-0.3395 2.18-0.3395 1.173 0 2.123 0.2996 2.85 0.8988 0.726 0.5992 1.09 1.4565 1.09 2.572v4.9814c0 0.1338 1e-3 0.2645 4e-3 0.392 4e-3 0.1274 0.012 0.2549 0.024 0.3824l0.765 0.1052v1.2047h-2.467c-0.057-0.2805-0.102-0.5322-0.134-0.7553-0.031-0.2231-0.054-0.4462-0.066-0.6693-0.364 0.4653-0.818 0.8525-1.363 1.1617-0.545 0.3091-1.127 0.4637-1.745 0.4637-1.077 0-1.896-0.2629-2.457-0.7888s-0.841-1.2669-0.841-2.223c0-0.9816 0.396-1.7385 1.19-2.2708 0.794-0.5322 1.882-0.7983 3.265-0.7983h1.941v-1.2048c0-0.6055-0.191-1.0852-0.574-1.4389-0.382-0.3538-0.914-0.5307-1.596-0.5307-0.472 0-0.888 0.0606-1.248 0.1817s-0.652 0.2868-0.875 0.4972l-0.201 1.09zm-58.696 2.5528l-0.029 0.0478c0.019 0.9944 0.271 1.8119 0.756 2.4525 0.484 0.6406 1.163 0.9609 2.036 0.9609 0.638 0 1.197-0.0909 1.678-0.2725 0.481-0.1817 0.897-0.4319 1.248-0.7506l0.736 1.2238c-0.37 0.357-0.859 0.6582-1.468 0.9036-0.608 0.2454-1.34 0.3681-2.194 0.3681-1.44 0-2.586-0.4797-3.437-1.439s-1.277-2.2038-1.277-3.7336v-0.4207c0-1.4724 0.439-2.6979 1.315-3.6763 0.877-0.9784 1.914-1.4677 3.112-1.4677 1.39 0 2.443 0.4207 3.16 1.2621s1.076 1.9633 1.076 3.3656v1.176h-6.712zm81.05-0.5354c0-1.5298 0.415-2.7903 1.243-3.7815 0.829-0.9912 1.954-1.4868 3.375-1.4868 1.428 0 2.558 0.494 3.39 1.482s1.248 2.2501 1.248 3.7863v0.2103c0 1.5426-0.415 2.8046-1.243 3.7863-0.829 0.9816-1.954 1.4724-3.375 1.4724-1.435 0-2.566-0.4924-3.395-1.4772-0.828-0.9848-1.243-2.2453-1.243-3.7815v-0.2103zm153.41-5.077h1.96v1.3959h-1.96v6.2817c0 0.4845 0.1 0.8255 0.301 1.0231s0.467 0.2964 0.799 0.2964c0.165 0 0.352-0.0144 0.559-0.0431 0.207-0.0286 0.381-0.0589 0.521-0.0908l0.258 1.2908c-0.178 0.1147-0.44 0.2087-0.784 0.282s-0.688 0.11-1.033 0.11c-0.764 0-1.373-0.2311-1.826-0.6932-0.452-0.4621-0.679-1.1872-0.679-2.1752v-6.2817h-1.635v-1.3959h1.635v-2.4955h1.884v2.4955zm-46.114 5.077c0-1.5298 0.415-2.7903 1.243-3.7815 0.829-0.9912 1.954-1.4868 3.375-1.4868 1.428 0 2.558 0.494 3.39 1.482s1.248 2.2501 1.248 3.7863v0.2103c0 1.5426-0.415 2.8046-1.243 3.7863-0.829 0.9816-1.954 1.4724-3.376 1.4724-1.434 0-2.565-0.4924-3.394-1.4772-0.828-0.9848-1.243-2.2453-1.243-3.7815v-0.2103zm-194.19-7.5725v2.4955h1.96v1.3959h-1.96v6.2817c0 0.4845 0.1 0.8255 0.301 1.0231s0.467 0.2964 0.799 0.2964c0.165 0 0.352-0.0144 0.559-0.0431 0.207-0.0286 0.381-0.0589 0.521-0.0908l0.258 1.2908c-0.178 0.1147-0.44 0.2087-0.784 0.282s-0.688 0.11-1.032 0.11c-0.765 0-1.374-0.2311-1.827-0.6932-0.452-0.4621-0.679-1.1872-0.679-2.1752v-6.2817h-1.6345v-1.3959h1.6345v-2.4955h1.884zm-26.054 2.4955h1.96v1.3959h-1.96v6.2817c0 0.4845 0.1003 0.8255 0.3011 1.0231s0.4669 0.2964 0.7984 0.2964c0.1657 0 0.3522-0.0144 0.5593-0.0431 0.2072-0.0286 0.3809-0.0589 0.5211-0.0908l0.2582 1.2908c-0.1785 0.1147-0.4399 0.2087-0.7841 0.282s-0.6884 0.11-1.0326 0.11c-0.7649 0-1.3736-0.2311-1.8262-0.6932-0.4525-0.4621-0.6788-1.1872-0.6788-2.1752v-6.2817h-1.635v-1.3959h1.635v-2.4955h1.8836v2.4955zm14.026 3.0596h-1.4533v-2.0079c0.4717-0.3761 1.0422-0.6772 1.7115-0.9035s1.3959-0.3395 2.18-0.3395c1.1728 0 2.1225 0.2996 2.8492 0.8988s1.09 1.4565 1.09 2.572v4.9814c0 0.1338 0.0016 0.2645 0.0048 0.392 0.0031 0.1274 0.0111 0.2549 0.0239 0.3824l0.7649 0.1052v1.2047h-2.4668c-0.0574-0.2805-0.102-0.5322-0.1339-0.7553s-0.0542-0.4462-0.0669-0.6693c-0.3633 0.4653-0.8175 0.8525-1.3625 1.1617-0.545 0.3091-1.1266 0.4637-1.7449 0.4637-1.0772 0-1.8963-0.2629-2.4572-0.7888-0.561-0.5259-0.8414-1.2669-0.8414-2.223 0-0.9816 0.3968-1.7385 1.1903-2.2708 0.7936-0.5322 1.882-0.7983 3.2652-0.7983h1.9409v-1.2048c0-0.6055-0.1912-1.0852-0.5737-1.4389-0.3824-0.3538-0.9146-0.5307-1.5967-0.5307-0.4717 0-0.8876 0.0606-1.2477 0.1817-0.3602 0.1211-0.6518 0.2868-0.8749 0.4972l-0.2008 1.09zm204.26 0.5832h-1.501l-0.411-1.6254c-0.223-0.2167-0.51-0.392-0.861-0.5259-0.35-0.1338-0.745-0.2008-1.185-0.2008-0.988 0-1.694 0.3554-2.118 1.0661s-0.636 1.5824-0.636 2.615v0.4016c0 1.0581 0.211 1.9393 0.631 2.6436 0.421 0.7044 1.129 1.0566 2.123 1.0566 0.625 0 1.174-0.1929 1.649-0.5785s0.713-0.8589 0.713-1.4198h1.692l0.019 0.0573c0.032 0.8924-0.365 1.6844-1.19 2.376-0.826 0.6916-1.787 1.0374-2.883 1.0374-1.504 0-2.653-0.4908-3.447-1.4724-0.794-0.9817-1.19-2.2151-1.19-3.7002v-0.4016c0-1.4724 0.398-2.701 1.195-3.6858 0.797-0.9849 1.944-1.4773 3.442-1.4773 0.829 0 1.573 0.1371 2.232 0.4112 0.66 0.2741 1.207 0.6501 1.64 1.1282l0.086 2.2947zm-89.636 6.7024h-5.001v-1.2047l1.559-0.2677v-7.3908l-1.559-0.2678v-1.2142h3.242l0.133 1.5393c0.345-0.5482 0.777-0.9736 1.296-1.2764s1.111-0.4542 1.774-0.4542c1.115 0 1.979 0.3267 2.591 0.9801 0.612 0.6533 0.918 1.662 0.918 3.0261v5.0579l1.558 0.2677v1.2047h-5v-1.2047l1.558-0.2677v-5.0197c0-0.9115-0.18-1.5584-0.54-1.9409-0.36-0.3824-0.91-0.5737-1.65-0.5737-0.541 0-1.021 0.1307-1.438 0.392-0.418 0.2614-0.751 0.6183-1 1.0709v6.0714l1.559 0.2677v1.2047zm-17.143 0h-5.001v-1.2047l1.559-0.2677v-7.3908l-1.559-0.2678v-1.2142h3.442v8.8728l1.559 0.2677v1.2047zm-33.044 0h-5v-1.2047l1.558-0.2677v-10.967l-1.558-0.2677v-1.2143h3.442l6.692 10.737 0.058-0.0191v-9.2361l-1.559-0.2677v-1.2143h5.001v1.2143l-1.559 0.2677v12.439h-1.883l-6.693-10.747-0.057 0.0191v9.2553l1.558 0.2677v1.2047zm73.593 0h-5.001v-1.2047l1.559-0.2677v-11.961l-1.559-0.2677v-1.2143h3.442v13.443l1.559 0.2677v1.2047zm36.141 0h-5v-1.2047l1.558-0.2677v-7.3908l-1.558-0.2678v-1.2142h3.241l0.134 1.5393c0.344-0.5482 0.776-0.9736 1.295-1.2764 0.52-0.3028 1.111-0.4542 1.774-0.4542 1.115 0 1.979 0.3267 2.591 0.9801 0.612 0.6533 0.918 1.662 0.918 3.0261v5.0579l1.558 0.2677v1.2047h-5v-1.2047l1.558-0.2677v-5.0197c0-0.9115-0.18-1.5584-0.54-1.9409-0.36-0.3824-0.91-0.5737-1.649-0.5737-0.542 0-1.022 0.1307-1.439 0.392-0.418 0.2614-0.751 0.6183-0.999 1.0709v6.0714l1.558 0.2677v1.2047zm-131.65 0h-5.001v-1.2047l1.559-0.2677v-7.3908l-1.559-0.2678v-1.2142h3.442v8.8728l1.559 0.2677v1.2047zm179.67 0h-5v-1.2047l1.558-0.2677v-7.3908l-1.558-0.2678v-1.2142h3.241l0.181 1.5011c0.294-0.5291 0.655-0.9434 1.086-1.243 0.43-0.2996 0.922-0.4494 1.477-0.4494 0.146 0 0.298 0.0112 0.454 0.0335s0.276 0.0462 0.359 0.0717l-0.249 1.7497-1.071-0.0573c-0.497 0-0.915 0.1163-1.252 0.3489-0.338 0.2327-0.6 0.5594-0.784 0.9801v5.9375l1.558 0.2677v1.2047zm-27.976 0h-5.001v-1.2047l1.559-0.2677v-7.3908l-1.559-0.2678v-1.2142h3.442v8.8728l1.559 0.2677v1.2047zm66.995 0h-5v-1.2047l1.558-0.2677v-7.3908l-1.558-0.2678v-1.2142h3.442v8.8728l1.558 0.2677v1.2047zm-102.45 0h-3.987v-1.2047l1.033-0.1434 4.866-12.573h1.616l4.781 12.573 1.023 0.1434v1.2047h-3.997v-1.2047l1.052-0.1817-0.918-2.5624h-5.574l-0.947 2.5624 1.052 0.1817v1.2047zm-163.91 0h-5.0005v-1.2047l1.5585-0.2677v-7.3908l-1.5585-0.2678v-1.2142h3.2413l0.1816 1.5011c0.2932-0.5291 0.655-0.9434 1.0852-1.243 0.4303-0.2996 0.9227-0.4494 1.4772-0.4494 0.1466 0 0.298 0.0112 0.4542 0.0335 0.1561 0.0223 0.2757 0.0462 0.3585 0.0717l-0.2486 1.7497-1.0708-0.0573c-0.4972 0-0.9147 0.1163-1.2525 0.3489-0.3379 0.2327-0.5992 0.5594-0.7841 0.9801v5.9375l1.5585 0.2677v1.2047zm105.95-5.0579c0 1.0964 0.231 2.0015 0.693 2.7154s1.149 1.0709 2.061 1.0709c0.892 0 1.571-0.357 2.036-1.0709s0.698-1.619 0.698-2.7154v-0.2103c0-1.0836-0.233-1.9856-0.698-2.7058-0.465-0.7203-1.15-1.0805-2.056-1.0805-0.905 0-1.587 0.3602-2.046 1.0805-0.459 0.7202-0.688 1.6222-0.688 2.7058v0.2103zm107.3 0c0 1.0964 0.231 2.0015 0.693 2.7154s1.149 1.0709 2.06 1.0709c0.893 0 1.572-0.357 2.037-1.0709s0.698-1.619 0.698-2.7154v-0.2103c0-1.0836-0.233-1.9856-0.698-2.7058-0.465-0.7203-1.151-1.0805-2.056-1.0805s-1.587 0.3602-2.046 1.0805c-0.459 0.7202-0.688 1.6222-0.688 2.7058v0.2103zm37.336 0.0765c0-1.1792-0.229-2.1449-0.688-2.897-0.459-0.7522-1.141-1.1283-2.046-1.1283-0.536 0-0.995 0.1211-1.377 0.3634-0.382 0.2422-0.692 0.5736-0.927 0.9943v5.0388c0.235 0.4271 0.543 0.7569 0.922 0.9896 0.38 0.2326 0.846 0.349 1.401 0.349 0.892 0 1.568-0.3251 2.027-0.9753 0.459-0.6501 0.688-1.4947 0.688-2.5337v-0.2008zm-217.11 0.2008c0 1.039 0.22 1.874 0.66 2.505 0.439 0.6311 1.109 0.9466 2.007 0.9466 0.568 0 1.043-0.1291 1.425-0.3872 0.383-0.2582 0.698-0.6231 0.947-1.0948v-4.7615c-0.243-0.4398-0.558-0.7888-0.947-1.0469-0.389-0.2582-0.857-0.3873-1.405-0.3873-0.899 0-1.572 0.3761-2.018 1.1283-0.446 0.7521-0.669 1.7178-0.669 2.897v0.2008zm117.66 0.1721h-2.008c-0.771 0-1.381 0.1785-1.831 0.5354-0.449 0.357-0.674 0.7904-0.674 1.3003 0 0.4526 0.141 0.7984 0.421 1.0374 0.28 0.2391 0.704 0.3586 1.272 0.3586 0.624 0 1.195-0.1498 1.711-0.4494s0.886-0.6597 1.109-1.0804v-1.7019zm-16.952 0h-2.008c-0.771 0-1.381 0.1785-1.831 0.5354-0.449 0.357-0.674 0.7904-0.674 1.3003 0 0.4526 0.141 0.7984 0.421 1.0374 0.28 0.2391 0.704 0.3586 1.272 0.3586 0.624 0 1.195-0.1498 1.711-0.4494s0.886-0.6597 1.109-1.0804v-1.7019zm-124.54 0h-2.0078c-0.7713 0-1.3816 0.1785-1.831 0.5354-0.4494 0.357-0.6741 0.7904-0.6741 1.3003 0 0.4526 0.1403 0.7984 0.4207 1.0374 0.2805 0.2391 0.7044 0.3586 1.2717 0.3586 0.6246 0 1.1951-0.1498 1.7114-0.4494s0.886-0.6597 1.1091-1.0804v-1.7019zm73.745 3.2317c0.625 0 1.196-0.1498 1.712-0.4494s0.886-0.6597 1.109-1.0804v-1.7019h-2.008c-0.771 0-1.381 0.1785-1.831 0.5354-0.449 0.357-0.674 0.7904-0.674 1.3003 0 0.4526 0.14 0.7984 0.421 1.0374 0.28 0.2391 0.704 0.3586 1.271 0.3586zm-30.567 0c0.625 0 1.195-0.1498 1.712-0.4494 0.516-0.2996 0.886-0.6597 1.109-1.0804v-1.7019h-2.008c-0.771 0-1.382 0.1785-1.831 0.5354-0.449 0.357-0.674 0.7904-0.674 1.3003 0 0.4526 0.14 0.7984 0.421 1.0374 0.28 0.2391 0.704 0.3586 1.271 0.3586zm111.57-4.1496h4.417l-2.161-5.9757h-0.057l-2.199 5.9757zm107.84-3.5281c-0.631 0-1.17 0.2662-1.616 0.7984s-0.72 1.1999-0.822 2.0031l0.019 0.0478h4.771v-0.2486c0-0.7394-0.198-1.3577-0.593-1.8549s-0.981-0.7458-1.759-0.7458zm-246.74 0c-0.631 0-1.169 0.2662-1.616 0.7984-0.446 0.5322-0.72 1.1999-0.822 2.0031l0.019 0.0478h4.771v-0.2486c0-0.7394-0.197-1.3577-0.592-1.8549-0.396-0.4972-0.982-0.7458-1.76-0.7458zm126.28-5.6984l0.019 0.0573c0.025 0.7394-0.22 1.3418-0.736 1.8071-0.517 0.4653-1.211 0.698-2.085 0.698-0.879 0-1.577-0.2327-2.094-0.698-0.516-0.4653-0.758-1.0677-0.726-1.8071l0.019-0.0573h1.434c0 0.4143 0.11 0.7537 0.33 1.0182s0.566 0.3968 1.037 0.3968c0.459 0 0.8-0.1323 1.023-0.3968 0.224-0.2645 0.335-0.6039 0.335-1.0182h1.444zm-107.55 1.7592h1.8836v-1.9218h-1.8836v1.9218zm54.958 0h1.8836v-1.9218h-1.8836v1.9218zm96.74 0h1.8836v-1.9218h-1.8836v1.9218zm66.995 0h1.8836v-1.9218h-1.8836v1.9218zm-150.47 23.98v2.6485h2.276v0.937h-2.276v6.7407c0 0.6756 0.123 1.1553 0.368 1.4389 0.245 0.2837 0.572 0.4255 0.98 0.4255 0.185 0 0.365-8e-3 0.54-0.0239 0.176-0.016 0.378-0.043 0.607-0.0813l0.173 0.851c-0.192 0.0828-0.424 0.1466-0.698 0.1912-0.275 0.0446-0.549 0.0669-0.823 0.0669-0.726 0-1.292-0.2295-1.697-0.6884s-0.607-1.1856-0.607-2.1799v-6.7407h-1.778v-0.937h1.778v-2.6485h1.157zm-40.941 7.8498v0.2773c0 1.1601 0.311 2.1337 0.932 2.9209 0.622 0.7872 1.436 1.1808 2.443 1.1808 0.707 0 1.313-0.0988 1.817-0.2964 0.503-0.1976 0.933-0.4812 1.29-0.8509l0.488 0.784c-0.389 0.408-0.88 0.7314-1.472 0.9705-0.593 0.239-1.301 0.3585-2.123 0.3585-1.3 0-2.378-0.4765-3.232-1.4294s-1.281-2.1656-1.281-3.638v-0.5259c0-1.4788 0.426-2.7058 1.276-3.6811 0.851-0.9752 1.879-1.4628 3.084-1.4628 1.268 0 2.266 0.4015 2.993 1.2047 0.726 0.8031 1.09 1.874 1.09 3.2126v0.9752h-7.305zm-54.423 5.1439h-2.3899l-0.1051-1.7019c-0.3251 0.6056-0.7697 1.0741-1.3338 1.4055-0.5641 0.3315-1.2286 0.4972-1.9935 0.4972-1.09 0-1.9426-0.3697-2.5577-1.1091s-0.9226-1.8867-0.9226-3.442v-5.0197l-1.2812-0.1243v-0.8509h2.419v6.014c0 1.2621 0.2151 2.1672 0.6453 2.7154 0.4303 0.5482 1.0406 0.8222 1.831 0.8222 0.8669 0 1.5569-0.1912 2.07-0.5736 0.5131-0.3825 0.8749-0.9115 1.0852-1.5872v-6.4156l-1.4724-0.1243v-0.8509h2.6197v9.3795l1.386 0.1243v0.8414zm83.298-7.3047h-0.947l0.01-1.9888c0.478-0.3697 1.05-0.6693 1.716-0.8987 0.666-0.2295 1.375-0.3442 2.127-0.3442 1.141 0 2.059 0.29 2.754 0.87 0.695 0.5801 1.042 1.4119 1.042 2.4955v5.0866c0 0.2103 5e-3 0.4127 0.014 0.6071 0.01 0.1944 0.031 0.3841 0.063 0.5689l1.032 0.0669v0.8414h-2.036c-0.077-0.3505-0.131-0.6533-0.163-0.9083s-0.048-0.5131-0.048-0.7744c-0.382 0.5418-0.892 0.9911-1.529 1.3481-0.638 0.3569-1.355 0.5354-2.152 0.5354-1.013 0-1.797-0.2613-2.352-0.784-0.554-0.5227-0.832-1.2302-0.832-2.1226 0-0.9561 0.412-1.7146 1.234-2.2756 0.822-0.5609 1.938-0.8413 3.346-0.8413h2.285v-1.3673c0-0.7394-0.237-1.3194-0.712-1.7401s-1.139-0.6311-1.993-0.6311c-0.574 0-1.098 0.0781-1.573 0.2343-0.475 0.1561-0.872 0.3681-1.191 0.6358l-0.095 1.3864zm-80.248 0h-0.946l9e-3 -1.9888c0.479-0.3697 1.051-0.6693 1.717-0.8987 0.666-0.2295 1.375-0.3442 2.127-0.3442 1.141 0 2.059 0.29 2.754 0.87 0.694 0.5801 1.042 1.4119 1.042 2.4955v5.0866c0 0.2103 5e-3 0.4127 0.014 0.6071 0.01 0.1944 0.03 0.3841 0.062 0.5689l1.033 0.0669v0.8414h-2.037c-0.076-0.3505-0.13-0.6533-0.162-0.9083s-0.048-0.5131-0.048-0.7744c-0.382 0.5418-0.892 0.9911-1.53 1.3481-0.637 0.3569-1.354 0.5354-2.151 0.5354-1.013 0-1.797-0.2613-2.352-0.784s-0.832-1.2302-0.832-2.1226c0-0.9561 0.411-1.7146 1.234-2.2756 0.822-0.5609 1.937-0.8413 3.346-0.8413h2.285v-1.3673c0-0.7394-0.237-1.3194-0.712-1.7401s-1.14-0.6311-1.994-0.6311c-0.573 0-1.098 0.0781-1.573 0.2343-0.474 0.1561-0.871 0.3681-1.19 0.6358l-0.096 1.3864zm97.879 2.1608v0.2773c0 1.1601 0.31 2.1337 0.932 2.9209 0.621 0.7872 1.436 1.1808 2.443 1.1808 0.707 0 1.313-0.0988 1.816-0.2964 0.504-0.1976 0.934-0.4812 1.291-0.8509l0.488 0.784c-0.389 0.408-0.88 0.7314-1.473 0.9705-0.592 0.239-1.3 0.3585-2.122 0.3585-1.301 0-2.378-0.4765-3.232-1.4294s-1.281-2.1656-1.281-3.638v-0.5259c0-1.4788 0.425-2.7058 1.276-3.6811 0.851-0.9752 1.879-1.4628 3.084-1.4628 1.268 0 2.266 0.4015 2.992 1.2047 0.727 0.8031 1.09 1.874 1.09 3.2126v0.9752h-7.304zm-64.816-2.1608h-0.946l9e-3 -1.9888c0.478-0.3697 1.05-0.6693 1.716-0.8987 0.666-0.2295 1.376-0.3442 2.128-0.3442 1.141 0 2.059 0.29 2.753 0.87 0.695 0.5801 1.043 1.4119 1.043 2.4955v5.0866c0 0.2103 4e-3 0.4127 0.014 0.6071 9e-3 0.1944 0.03 0.3841 0.062 0.5689l1.033 0.0669v0.8414h-2.037c-0.076-0.3505-0.131-0.6533-0.162-0.9083-0.032-0.255-0.048-0.5131-0.048-0.7744-0.383 0.5418-0.893 0.9911-1.53 1.3481-0.637 0.3569-1.355 0.5354-2.151 0.5354-1.014 0-1.798-0.2613-2.352-0.784-0.555-0.5227-0.832-1.2302-0.832-2.1226 0-0.9561 0.411-1.7146 1.233-2.2756 0.822-0.5609 1.938-0.8413 3.347-0.8413h2.285v-1.3673c0-0.7394-0.238-1.3194-0.713-1.7401-0.474-0.4207-1.139-0.6311-1.993-0.6311-0.574 0-1.098 0.0781-1.573 0.2343-0.475 0.1561-0.872 0.3681-1.19 0.6358l-0.096 1.3864zm-58.457 7.3047h-4.2548v-0.8414l1.5585-0.1243v-8.4043l-1.5585-0.1243v-0.8509h2.6963v9.3795l1.5585 0.1243v0.8414zm3.1552-7.4099h-1.0231v-2.9353h7.649v0.8509l-6.2721 8.5286h5.6219l0.0861-1.96h1.023v2.9257h-8.1365v-0.8414l6.2339-8.519h-5.1057l-0.0765 1.9505zm93.078 7.4099h-5.602v-0.8414l1.558-0.1243v-11.98l-1.558-0.1242v-0.851h5.602c1.702 0 3.108 0.5673 4.217 1.7019s1.664 2.5911 1.664 4.3695v1.7879c0 1.7848-0.555 3.2413-1.664 4.3695s-2.515 1.6923-4.217 1.6923zm-51.391 0h-4.255v-0.8414l1.559-0.1243v-8.4043l-1.559-0.1243v-0.8509h2.696v9.3795l1.559 0.1243v0.8414zm3.155-7.4099h-1.023v-2.9353h7.649v0.8509l-6.272 8.5286h5.622l0.086-1.96h1.023v2.9257h-8.137v-0.8414l6.234-8.519h-5.105l-0.077 1.9505zm-59.518 7.4099h-1.0804l-4.8475-12.984-1.0709-0.086v-0.851h3.6142v0.851l-1.3004 0.1051 3.8436 10.613 0.2773 0.9274h0.0574l0.2773-0.9274 3.834-10.613-1.3003-0.1051v-0.851h3.6141v0.851l-1.0804 0.086-4.838 12.984zm83.593 0h-4.254v-0.8414l1.558-0.1243v-8.4043l-1.558-0.1243v-0.8509h2.552l0.144 1.721v0.1243c0.293-0.6374 0.693-1.1362 1.2-1.4963 0.507-0.3602 1.107-0.5402 1.802-0.5402 0.147 0 0.288 0.0111 0.426 0.0334 0.137 0.0223 0.25 0.0463 0.339 0.0717l-0.153 1.0709-0.851-0.0574c-0.72 0-1.311 0.2024-1.774 0.6072-0.462 0.4047-0.792 0.9609-0.989 1.6684v6.1765l1.558 0.1243v0.8414zm-33.215 0h-4.255v-0.8414l1.558-0.1243v-12.974l-1.558-0.1243v-0.851h2.696v13.95l1.559 0.1243v0.8414zm-7.898-4.9431h-2.304c-1.039 0-1.869 0.2151-2.491 0.6454-0.621 0.4302-0.932 0.9736-0.932 1.6302 0 0.5545 0.193 1.0023 0.578 1.3433 0.386 0.341 0.917 0.5115 1.592 0.5115 0.829 0 1.559-0.1912 2.19-0.5736 0.631-0.3825 1.087-0.8765 1.367-1.482v-2.0748zm33.063 0h-2.304c-1.039 0-1.87 0.2151-2.491 0.6454-0.622 0.4302-0.932 0.9736-0.932 1.6302 0 0.5545 0.192 1.0023 0.578 1.3433s0.916 0.5115 1.592 0.5115c0.829 0 1.558-0.1912 2.19-0.5736 0.631-0.3825 1.086-0.8765 1.367-1.482v-2.0748zm47.184 0h-2.304c-1.039 0-1.869 0.2151-2.491 0.6454-0.621 0.4302-0.932 0.9736-0.932 1.6302 0 0.5545 0.193 1.0023 0.579 1.3433 0.385 0.341 0.916 0.5115 1.592 0.5115 0.828 0 1.558-0.1912 2.189-0.5736 0.631-0.3825 1.087-0.8765 1.367-1.482v-2.0748zm-17.879-8.0028v11.98h2.906c1.377 0 2.51-0.4812 3.4-1.4437 0.889-0.9625 1.333-2.18 1.333-3.6524v-1.8166c0-1.4533-0.446-2.6612-1.338-3.6237-0.893-0.9625-2.024-1.4438-3.395-1.4438h-2.906zm-13.338 3.3847c-0.841 0-1.551 0.3235-2.127 0.9705-0.577 0.647-0.913 1.4581-1.009 2.4333l0.019 0.0478h6.062v-0.2868c0-0.8988-0.265-1.6509-0.794-2.2565-0.529-0.6055-1.246-0.9083-2.151-0.9083zm46.506 0c-0.842 0-1.551 0.3235-2.128 0.9705s-0.913 1.4581-1.008 2.4333l0.019 0.0478h6.062v-0.2868c0-0.8988-0.265-1.6509-0.794-2.2565-0.529-0.6055-1.246-0.9083-2.151-0.9083zm-129.19-3.748h1.1378v-1.6063h-1.1378v1.6063zm44.842 0h1.1378v-1.6063h-1.1378v1.6063zm-111.09 16.511c-0.8125-0.615-1.5902-1.276-2.328-1.9794-2.2958-2.189-4.2007-4.7834-5.5958-7.6325-1.2092-2.4695-2.0318-5.1246-2.4305-7.8452-0.4199-2.8654-0.375-5.8 0.1348-8.6509 0.4442-2.4842 1.244-4.9026 2.3676-7.1623 1.3405-2.6959 3.1386-5.1603 5.2926-7.2636 2.1557-2.105 4.6645-3.8448 7.3945-5.1203 2.1912-1.0238 4.5212-1.7465 6.9072-2.1422 0.8345-0.1385 1.6756-0.2372 2.5194-0.2961 0.4566-0.0319 0.9137-0.0507 1.3712-0.0608 0.2307-0.0037 0.4612-0.0051 0.6918-0.0044 0.4589 0.0044 0.9174 0.0174 1.3756 0.0436 0.8465 0.0483 1.6907 0.1366 2.5288 0.2648 2.3943 0.3662 4.7365 1.0607 6.9433 2.0591 2.6488 1.1984 5.0971 2.8318 7.2249 4.8126 2.202 2.0501 4.0573 4.469 5.4619 7.1297 1.2011 2.2752 2.0702 4.7233 2.5707 7.247 0.5741 2.8947 0.6654 5.8851 0.2744 8.8101-0.3649 2.7293-1.1553 5.3985-2.3361 7.8861-1.3608 2.867-3.2352 5.485-5.5056 7.702-0.8061 0.7871-1.6615 1.523-2.5594 2.2026v-1.7271c0.4788-0.394 0.9433-0.8056 1.3922-1.2336 2.2172-2.1143 4.0505-4.6262 5.3812-7.3861 1.1109-2.3043 1.8684-4.7758 2.2392-7.3068 0.3987-2.721 0.3565-5.5082-0.1278-8.2154-0.4218-2.3577-1.1806-4.6529-2.247-6.7974-1.341-2.6967-3.1642-5.1491-5.3563-7.2141-1.9712-1.8571-4.2369-3.3985-6.6907-4.5451-2.1277-0.9942-4.3932-1.6887-6.7124-2.0585-0.794-0.1267-1.5941-0.2153-2.3966-0.2663-0.3799-0.0242-0.7602-0.0385-1.1407-0.047-0.2192-0.0035-0.4382-0.0049-0.6573-0.0041-1.1882 0.0109-2.3741 0.0967-3.55 0.2691-2.3271 0.341-4.6044 1.0084-6.7473 1.9778-2.5615 1.1588-4.925 2.7465-6.9713 4.6741-2.0423 1.9239-3.7653 4.1843-5.0752 6.6658-1.1399 2.1592-1.9647 4.4825-2.4397 6.8776-0.5452 2.749-0.6319 5.589-0.2605 8.3667 0.3394 2.539 1.0666 5.0238 2.1512 7.3446 1.2978 2.7769 3.101 5.3117 5.2938 7.453 0.5166 0.5045 1.0546 0.9869 1.6119 1.4455v1.7274z"/>
    <path d="m14.845 40.636l-4.2565 3.1658v-31.756c2.1409 0 4.2829-0.0688 6.4226 0.0012 0.0362 2e-3 0.0721 0.0051 0.1081 0.0095 0.1056 0.015 0.2086 0.041 0.3075 0.0813 0.2591 0.1056 0.4788 0.2989 0.6163 0.5426 0.0621 0.11 0.1053 0.2282 0.1331 0.3512 0.6671 1.9755 1.3347 3.9508 2.0013 5.9265 0.0367 0.1085 0.0703 0.218 0.1077 0.3264 0.1215 0.3379 0.2668 0.6934 0.5441 0.9356 0.0588 0.0514 0.1229 0.0967 0.1911 0.1347 0.2179 0.1214 0.4697 0.1629 0.7167 0.1627 0.1603 0 0.3214-0.0168 0.4757-0.0611 0.165-0.0474 0.3192-0.1275 0.4498-0.2392 0.262-0.224 0.4122-0.5489 0.5212-0.8689 0.028-0.0825 0.0535-0.1658 0.0774-0.2495 0.0251-0.0879 0.0479-0.1764 0.0706-0.265l0.9108-3.4409c-0.1796 0-0.3606-0.0028-0.5407 0.0014-0.0549 0.0024-0.1094 0.0059-0.1642 0.0107-0.2046 0.0225-0.4049 0.0664-0.596 0.1438-0.1058 0.0429-0.2077 0.0949-0.3045 0.1555-0.5386 0.3373-0.873 0.9107-1.0897 1.4929-0.0371 0.0996-0.0705 0.2003-0.1023 0.3016 0-1.0093-0.0119-2.0188 8e-4 -3.0281 0.0082-0.2196 0.0382-0.4361 0.0918-0.6493 0.0445-0.1771 0.1033-0.3505 0.1745-0.5186 0.054-0.1277 0.1153-0.2525 0.1833-0.3734 0.0566-0.1005 0.1179-0.1984 0.1838-0.293 0.3494-0.5015 0.8531-0.9459 1.4657-1.0735 0.1022-0.0213 0.2056-0.0322 0.3099-0.0352 1.2782-0.0122 2.5566-0.0148 3.8348 1e-4 0.1563 0.0055 0.3101 0.0305 0.4585 0.0806 0.3987 0.1343 0.7324 0.4326 0.9104 0.8137 0.0716 0.1532 0.115 0.3158 0.1359 0.4833l1.0547 5.9284c0.0227 0.0886 0.0455 0.1771 0.0706 0.265 0.0239 0.0837 0.0494 0.167 0.0774 0.2495 0.098 0.2876 0.228 0.5772 0.4439 0.7967 0.0661 0.0673 0.14 0.1271 0.2202 0.1768 0.234 0.1449 0.5105 0.1956 0.7826 0.1957 0.2584 2e-4 0.5218-0.0455 0.7461-0.1797 0.0763-0.0456 0.1468-0.1006 0.2104-0.1627 0.133-0.1301 0.234-0.2891 0.3163-0.455 0.1078-0.2173 0.1855-0.4478 0.2602-0.6781 0.6389-2.0156 1.3514-4.0071 2.0279-6.0104 0.0081-0.0357 0.0172-0.0708 0.0276-0.1059 0.011-0.0343 0.023-0.068 0.0362-0.1016 0.0409-0.098 0.0919-0.1907 0.1554-0.2759 0.162-0.2173 0.3944-0.3785 0.6548-0.4536 0.1128-0.0325 0.2287-0.0475 0.3459-0.0488h6.3677v31.756l-6.8217-5.0737h-0.1684v-0.1253l-2.5876-1.9246 0.0083-9.1536c-0.0049-0.0215-0.0111-0.042-0.0188-0.0626-0.019-0.0448-0.0442-0.0857-0.0778-0.1211-0.0988-0.1041-0.251-0.1462-0.3883-0.1022-0.0355 0.0113-0.0693 0.0281-0.0999 0.0493-0.0348 0.0242-0.0655 0.0542-0.0905 0.0883-0.0322 0.0441-0.0529 0.0935-0.065 0.1465l-2.1386 12.852-3.7513 3.2695-3.7283-3.2695c-0.723-4.2893-1.2033-8.6266-2.17-12.868-0.0058-0.021-0.0127-0.0412-0.0212-0.0613-0.0229-0.0485-0.0532-0.0919-0.0933-0.1278-0.0315-0.0284-0.0679-0.0515-0.107-0.0678-0.035-0.0146-0.0722-0.0239-0.11-0.0273-0.1369-0.0123-0.2721 0.0549-0.3486 0.1683-0.0276 0.0409-0.0455 0.0859-0.0565 0.1338l0.0084 9.1536-5.2456 3.9014v0.0564h-0.0757zm12.798-27.753h-3.7505c-0.0763 9e-4 -0.1467 0.0259-0.2134 0.0611-0.0859 0.0454-0.1635 0.1057-0.2344 0.1716-0.1056 0.0983-0.1973 0.2112-0.2773 0.3309-0.1439 0.2153-0.2494 0.4541-0.3148 0.7044l-5e-4 0.0019c0.0689-0.0177 0.0687-0.0173 0.1382-0.0332 0.0818-0.0167 0.0815-0.0166 0.1633-0.0313 0.1386-0.0219 0.2774-0.0385 0.4175-0.0462 0.2227-0.0123 0.449-0.0058 0.6709-0.0058l0.1304 0.0063c0.043 0.0062 0.0864 0.0104 0.1291 0.0188 0.1282 0.025 0.2527 0.0686 0.3684 0.129 0.39 0.2038 0.6618 0.5945 0.7173 1.031 0.0165 0.1296 0.0141 0.2614-7e-3 0.3903-0.0071 0.0429-0.0182 0.0851-0.0273 0.1276-0.3201 1.2094-0.638 2.4193-0.9597 3.6282-0.0698 0.251-0.147 0.4997-0.2485 0.7399-0.1631 0.386-0.3871 0.7482-0.6907 1.0398-0.2808 0.2698-0.6218 0.4714-0.9928 0.5896-0.3223 0.1027-0.662 0.1427-0.9996 0.1356-0.3006-0.0064-0.6009-0.0522-0.886-0.149-0.3078-0.1047-0.594-0.2684-0.839-0.4823-0.3056-0.2669-0.5378-0.6048-0.7122-0.9691-0.1261-0.2635-0.2223-0.5392-0.3122-0.8166-0.6362-2.0091-1.3471-3.9938-2.0214-5.9904l-0.0196-0.0636h-4.9271v27.702l1.6201-1.205v-17.818h1.356v16.81l1.2735-0.9471v-12.486h1.356v11.477l1.2594-0.9367-0.0078-8.4714 0.0038-0.1023c0.0094-0.0834 0.0199-0.1656 0.0409-0.2471 0.0377-0.146 0.0928-0.2869 0.1663-0.4187 0.106-0.1903 0.2483-0.36 0.4166-0.4982 0.1492-0.1226 0.3189-0.2202 0.5-0.2872 0.1423-0.0526 0.2916-0.0868 0.4427-0.1006 0.5257-0.048 1.0553 0.1535 1.4175 0.5373 0.1677 0.1777 0.2973 0.3914 0.3773 0.6223 0.0259 0.0748 0.0445 0.1508 0.0621 0.2279l2.0925 12.414 2.474 2.1697 2.4908-2.1709 2.0653-12.411 0.0194-0.0848c0.0267-0.0969 0.057-0.1916 0.0981-0.2836 0.0694-0.1555 0.162-0.3005 0.2736-0.4291 0.1109-0.1279 0.2404-0.2395 0.3835-0.3301 0.364-0.2305 0.8098-0.3178 1.2339-0.2406 0.1465 0.0266 0.2899 0.0725 0.4248 0.1356 0.1752 0.0821 0.3366 0.1938 0.4753 0.3285 0.1569 0.1525 0.2847 0.3343 0.3745 0.5338 0.0621 0.1379 0.1071 0.2844 0.1295 0.4341 0.0132 0.089 0.0116 0.1117 0.0148 0.2014l-0.0077 8.4714 1.231 0.9156v-11.049h1.3561v12.057l1.2625 0.939v-17.166h1.3561v18.175l1.6593 1.2342v-27.702h-4.927c-0.6215 2.0095-1.3447 3.9856-2.017 5.9782-0.0399 0.1181-0.0767 0.2371-0.1174 0.3549-0.0782 0.2177-0.1631 0.4328-0.2691 0.6387-0.1787 0.3471-0.4145 0.6653-0.7169 0.9145-0.2914 0.24-0.6357 0.4087-1.0018 0.4993-0.2427 0.0601-0.4931 0.0862-0.7429 0.0862-0.2867 0-0.5739-0.0345-0.8499-0.1137-0.3267-0.0937-0.6341-0.2504-0.8991-0.4637-0.4039-0.325-0.6891-0.767-0.8825-1.2438-0.1226-0.3023-0.2093-0.6163-0.2898-0.9319-0.3566-2.0042-0.7141-4.0083-1.0698-6.0127-0.0056-0.0319-0.0055-0.0616-0.0152-0.092-0.0246-0.0708-0.0876-0.1214-0.1618-0.131-0.0107-0.0012-0.0214-0.0015-0.0326-0.0015zm-1.5361 23.02h1.3561v-12.864h-1.3561v12.864z"/>
  </g>
</svg>
