<svg version="1" xmlns="http://www.w3.org/2000/svg" width="1152" height="1152" viewBox="0 0 864.000000 864.000000"><path d="M404.8 40.5c-.1.2-4.8.6-10.3.9-5.5.3-11.3.8-13 1.1-1.6.2-4.8.7-7 1-5.3.8-10.3 1.5-14 2-4.2.6-13.5 2.3-16.5 3-1.4.3-3.8.8-5.3 1-8.3 1.6-32.2 8.2-46.4 13-54.2 18.2-101.1 45.2-146.6 84.3-6 5.2-33.4 32.8-39.3 39.6-3.2 3.8-6.4 7.4-6.9 8-1.2 1.2-7.5 9.3-11.2 14.2C78.1 222.3 76 225.2 76 226c0 .4-.4 1-.9 1.2-.6.2-8.7 12.3-13.1 19.8-12.1 20.2-24.2 44.6-32.3 65-7.3 18.5-18.6 56.9-21.1 71.5-.3 1.6-.8 4.3-1.1 6-.5 2.7-1.6 9.1-2.9 17-.3 1.7-.8 5.8-1.1 9-.3 3.3-.7 7-1 8.3-1.8 9.7-2.6 61.1-1.1 77.2.4 4.1.9 9.6 1.1 12.1.5 6.6 2.4 20.5 3.5 26.4.5 2.7 1.2 6.6 1.5 8.5 1.6 10.1 9.9 43.2 12.2 49 .4.8.7 1.7.8 2 2.9 9.8 8.2 24.1 12.2 33.5 1.4 3.3 3.2 7.6 4 9.5 2.4 5.7 13 26.7 17.9 35.4 4.7 8.5 5.4 9.6 9.4 16.1 1.4 2.2 3.2 5.2 3.9 6.8.8 1.5 1.8 2.7 2.3 2.7.4 0 .8.6.8 1.3 0 .8.9 2.2 2 3.2s2 2.2 2 2.6c0 .5.6 1.7 1.4 2.6.8 1 5.5 7.2 10.3 13.8 4.9 6.6 9.6 12.7 10.4 13.5.8.8 2.7 3.1 4.3 5 13.8 17 35.9 38.7 56.2 55.2 4.9 4 9.5 7.8 10.2 8.5.7.7 1.6 1.3 2 1.3.4 0 .7-6.1.7-13.6l-.1-13.5-3.4-3c-1.9-1.7-6.2-5.4-9.5-8.2-16.7-14.5-42-42.4-56.4-61.9-4.7-6.6-17.6-25.9-20.5-31-1.1-1.8-4-6.7-6.4-10.8-11.3-19.3-28.9-59.6-32.8-75-.2-.8-1.9-6.5-3.7-12.5-1.9-6.1-3.4-11.2-3.4-11.5 0-.4-2.2-10.2-4-18-.3-1.4-.7-3-.8-3.5-.5-1.8-1.6-9-2.1-12.5-.2-1.9-.7-4.2-.9-5.1-.3-.8-.7-4-1-7-.3-3-.7-6.8-1-8.4-2.4-16.7-2.7-80.9-.4-87.5.1-.3.1-.8 0-1.2-.1-1 2.9-22 3.4-23.8.3-.8.7-3.5 1.1-6 1-7.2 1.2-8.5 1.4-8.5.2 0 .9-3.1 1.4-5.5.1-.8.6-3.6 1-6.3.5-2.6 1.2-5 1.7-5.3.5-.3.7-.9.4-1.4-.3-.5 0-2.1.6-3.7.6-1.5 1.3-3.7 1.5-4.9 1-5.1 9.2-29.9 12.7-38.4.6-1.4 1.1-2.7 1.2-3 .6-1.7 2-5 3.6-8.6 1-2.3 2.1-5.4 2.5-6.8.3-1.4 1-2.6 1.5-2.6s.9-.5.9-1.2c0-1.2 11-23.9 12-24.8.3-.3 1.1-1.6 1.7-3 3.8-7.8 24.2-39.8 27.7-43.3.9-.9 1.6-2 1.6-2.5 0-.6.3-1.2.8-1.4.4-.2 2.9-3.2 5.7-6.8 2.7-3.6 5.4-7 6-7.6.5-.6 3.3-3.7 6-7 4.4-5.2 15.2-16.9 19.6-21.3 7.1-7.1 18.6-17.7 24.4-22.6 3.9-3.2 7.2-6.1 7.5-6.5.3-.3 3.2-2.6 6.5-5s6.2-4.6 6.5-5c.3-.3 2.1-1.7 4-3s3.7-2.7 4-3c.8-.8 23.9-16 24.5-16 .2 0 2.9-1.6 5.9-3.5 3-1.9 5.9-3.5 6.5-3.5.5 0 1.1-.3 1.3-.8.3-.7 31-16.1 36.6-18.3 1.2-.5 3.2-1.3 4.5-1.9C299 81.7 334.6 71.4 361 67.4c1.9-.2 4.6-.7 6-.9 20.3-3.7 65-5.8 86.3-4.1 22.7 1.9 31.8 3 40.7 4.6 3 .6 6.9 1.2 8.5 1.4 1.7.3 5.3 1 8 1.6 2.8.7 6.1 1.4 7.5 1.6 1.4.3 6.8 1.6 12 3s10.2 2.7 11.2 2.9c2.7.6 31.4 10.2 35 11.8 1.8.8 6.9 2.9 11.3 4.7 15.4 6.4 55.1 27.1 57.5 30 .3.3 2.3 1.7 4.5 3 4 2.4 23.6 15.9 24.5 17 .3.3 2.5 2.1 5 4 23.2 17.7 51.7 46.2 71 71 1.9 2.5 3.8 4.6 4.2 4.8.5.2.8 1 .8 1.8s.3 1.4.8 1.4c.4 0 1.8 1.8 3.2 4 1.4 2.2 2.8 4 3.2 4 .5 0 .8.6.8 1.3 0 .7.9 2.3 2 3.5 1.1 1.1 2.8 3.4 3.7 5.1 1 1.6 5.4 8.9 9.9 16.3 6.8 11.3 17.8 32.6 23.7 45.8 5 11.3 15.5 40.2 17.2 47.6.3 1 1.8 7.1 3.5 13.4 1.7 6.3 3.3 13.1 3.6 15 .3 1.9.9 4.8 1.4 6.5.5 1.6 1.1 4.8 1.4 7 .3 2.2.7 4.9 1 6 .9 4.6 1.9 12.2 2 15.7.1 2.1.3 3.8.6 3.8s.5 1.2.6 2.7c0 1.6.5 8 .9 14.3 1.7 23 .7 66.2-1.9 79.5-.3 1.6-.8 5.2-1.1 8-.3 2.7-.7 6.1-1 7.5-.3 1.4-.7 3.8-.9 5.5-.3 1.6-1.2 6.4-2.1 10.5-.9 4.1-1.9 8.6-2.1 10-1.1 5.4-7.5 28.6-9.1 33-.3.8-.7 2.2-.9 3-.5 2.4-8.3 22.8-12.6 33-3.5 8.2-17 35.6-19.8 40-.5.8-2.8 4.6-5.1 8.5-4 6.7-14.4 22.9-16.1 25-.5.5-3.8 5-7.5 10-17 22.9-38.5 46-61.5 65.7l-5.5 4.8v13.5c0 7.4.2 13.5.4 13.5.3 0 1.7-1 3.2-2.3 1.6-1.2 4.5-3.6 6.6-5.2 12.8-9.9 40.1-35.9 52.3-49.8 7.2-8.2 19.5-23.7 26-32.7 3.4-4.7 6.6-9 7.2-9.7.5-.7 1-1.5 1-1.9 0-.4.7-1.5 1.5-2.4 4.2-4.6 21.3-34.5 28.9-50.5 10.9-22.8 15-32.5 13.8-32.5-.4 0-.2-.4.4-.8 1.5-1 13.3-37 15.9-48.7.6-2.7 1.2-4.9 2.9-12 .8-3.3 1.6-7.8 1.9-10 .3-2.2 1-6 1.6-8.5.9-4.3 1.4-7.6 2.6-17.3.3-2.3.8-5.3 1.1-6.7.4-2.5.9-8.1 2-24.5 1.2-17.5.6-52.9-1-66.5-.3-1.9-.7-6.2-1.1-9.5-.3-3.3-.8-6.9-1-8-.2-1.1-.7-4-1-6.5-.3-2.5-.7-5.4-.9-6.5-2.4-13.3-2.3-12.8-4.1-21-.9-3.9-1.8-8.1-2.1-9.5-.3-1.4-.9-3.9-1.4-5.5-.5-1.7-1.8-6.4-3-10.5-8.7-30.8-22.5-64.1-37.7-90.7-3-5.4-6.4-11.4-7.5-13.3-1.1-1.9-2.5-3.8-3.2-4.2-.6-.4-.8-.8-.4-.8 1.1 0-18.4-28.3-25.2-36.6-1.4-1.7-3.3-4.2-4.4-5.5-1-1.3-4-4.9-6.6-7.9-2.5-3-5.7-6.8-7.1-8.4-1.3-1.6-8.5-9-15.9-16.5-12.7-12.8-19.5-19-31.5-29-2.7-2.3-5.7-4.7-6.5-5.4-.8-.8-3.1-2.4-5-3.7-1.9-1.4-4.4-3.3-5.5-4.2-1-1-8.4-6.2-16.3-11.5-14.7-9.9-16.8-11.3-21.2-13.5-1.4-.7-2.7-1.5-3-1.8-2.1-2.1-38.1-20.1-50-24.9-5.8-2.3-11.4-4.6-12.5-5.1-1.1-.5-4.7-1.8-8-3-3.3-1.1-6.7-2.3-7.5-2.7-.8-.3-1.9-.7-2.5-.8-.5-.2-5-1.5-10-3-17.4-5.2-35.3-9.6-45-11-1.1-.2-2-.4-2-.5 0-.1-.9-.3-2-.4-1.1-.2-3.6-.6-5.5-.9-1.9-.3-5.7-.9-8.5-1.3-2.7-.3-5.7-.7-6.5-.9-.8-.2-4.9-.6-9-1s-9.5-.9-12-1.2c-5.3-.5-57.7-1.3-58.2-.8z"/><path d="M373.9 226c-7.3 2.5-10.3 4.6-16.2 11-5.9 6.5-9.8 13.6-12.8 23.2-1.4 4.9-1.7 10-1.8 32v26.3l3.8-8c7.6-15.9 16.5-22.7 31.6-24 8.2-.7 9.6-.1 8.5 3.3-.7 2.3-8.7 31.7-9.4 34.7-4 16.7-8.1 29.4-10.9 33.7-5.2 7.8-13.3 11.1-23.9 9.5-5-.8-7.7-2.3-11.1-6.1-3.8-4.4-5.6-8.6-13.1-30.6-3.6-10.7-11.3-33.7-17.2-51-5.8-17.3-10.7-32-10.8-32.5-.1-.6-1.1-2.7-2.3-4.7-3.1-5.3-8-8.6-14.3-9.6-4.2-.6-98.4-.9-103.6-.3-.7.1-1 77.1-1 254v253.9l2.6-1.8c1.4-1 9.5-7 18-13.4s16.4-12.2 17.5-13c3.9-2.9 45-33.5 46-34.3.6-.4 5.3-4 10.5-7.8s10-7.4 10.7-8c.6-.5 11.7-8.8 24.5-18.3l23.4-17.3-.1-72.7c-.1-75.8-.1-77 4-78.6 3.1-1.1 7.3 2.1 8.2 6.2.4 2 .8 3.9.8 4.2.1.3.4 1.8.8 3.5 1.2 5.1 1.8 7.9 2.3 11.4.2 1.9.6 3.7.8 4 .4.5 1.5 6.3 5.2 26.6.2 1.1 1 6.3 1.9 11.5.9 5.2 2.3 13.5 3.1 18.5.9 4.9 1.7 9.9 1.9 11 .9 6.4 1.7 11.4 2.2 14 .3 1.6.6 4.4.8 6 .1 1.7.5 4.4.9 6 .6 3.3.9 5.2 2.6 17 .6 4.4 1.4 9.3 1.6 11 1 5.6 1.5 9 1.9 12 .2 1.6.5 3.9.8 5 .3 1.1.8 4.5 1.2 7.5.4 3 .9 6.4 1.1 7.5.4 1.9 1.2 7.3 1.9 12.3 1.1 8.2 2.8 16.2 3.3 16.2.4 0 2.3 1.5 4.2 3.3 2 1.7 6.9 6.1 11 9.7 4.1 3.6 7.7 6.7 8 7 .3.3 4.1 3.7 8.5 7.5 4.4 3.9 8.5 7.4 9.1 8 .6.5 3.7 3.2 6.9 6 3.2 2.7 6.8 6 8.1 7.3 1.3 1.2 2.5 2.2 2.8 2.2.3 0 2.7-1.9 5.4-4.2 2.6-2.4 7.5-6.6 10.7-9.3 3.2-2.8 6.3-5.5 6.9-6 .6-.6 6.3-5.5 12.6-11 24.9-21.6 24.8-21.4 25.5-26 .3-2.2.7-4.9.9-6 .2-1.1.7-3.8 1-6 .6-3.5 1.7-10.3 3-17 .2-1.1.6-4.1 1-6.6s.9-5.7 1.1-7c1.1-6.3 3.7-21.7 4.1-24.4.6-4 1.6-9.5 2.1-12 .3-1.8.9-5.2 1.8-11.5.2-1.4 1.1-6.8 2-12 .9-5.2 1.8-10.6 2-12 .9-5.4 1.5-9.1 4-24 1.4-8.5 2.8-17.1 3.1-19 .3-1.9.7-4.6 1-6 .8-4.3 1.3-7.1 3.8-22.5 1.4-8.3 2.8-15.8 3.1-16.7.4-.9 1.9-2.1 3.4-2.6 2.3-.8 3.3-.6 5.3 1.2l2.6 2.1-.2 73.5c-.1 68.9 0 73.6 1.6 75 1 .8 10.3 7.8 20.8 15.5 10.4 7.7 18.9 14.6 19 15.2 0 .7.3 1.2.8 1.2 1.7-.3 2.9.2 4.8 1.9 1.1 1 3.3 2.7 4.9 3.8 2.6 1.6 5.9 4 19.5 14.3 1.4 1.1 9.3 6.9 17.5 13 8.3 6.1 15.7 11.7 16.5 12.4.9.6 3.6 2.7 6 4.5 14.8 10.9 24.3 17.9 28 21 1.5 1.2 3.2 2.2 3.8 2.2.6 0 1.2.4 1.4.8.4.9 7.2 6.2 8 6.2.3 0 .6-114 .6-253.4 0-189.3-.3-253.6-1.2-253.8-.6-.2-24.3-.3-52.6-.2-45.9.1-51.9.3-55.5 1.8-4.8 2.1-8.2 5.1-10 9.1-1.7 3.6-14.7 41.5-27.5 80-5.1 15.4-10.1 29.7-11.1 31.7-3.5 7-9.4 11.7-15.6 12.5-5.2.6-5.3.6-9.8-.2-11.7-2-18-11.8-21.9-34.1-.9-4.9-1.8-9.9-2-11-.2-1.2-.7-3.7-1-5.5-.3-1.9-.8-4.5-1.1-5.9-.5-2.4-1-5.2-2-11.5-.3-1.7-1.6-9.3-3-17-1.3-7.7-2.7-15.4-2.9-17-.3-1.7-1-5.5-1.6-8.5-.6-3-1.3-7.1-1.6-9-1.4-9.4-6.4-16.9-13.8-20.8l-5.1-2.6-35.1-.1c-29.3-.1-35.9.2-39.5 1.5zm70.4 21.5c.8.8 1.8 3.8 2.2 6.7.4 2.9.8 6 1 6.8 1 5 1.7 8.8 2 11 .3 2.3 2.8 16 4 22 .3 1.4.7 3.8 1 5.5.3 1.6.7 4.3 1 6 .3 1.6.8 4.8 1.1 6.9.3 2.2.7 4.3 1 4.8.3.4.7 2.9 1 5.5.2 2.6.7 5.6 1 6.5.3 1 .7 3 1 4.5 2 11.7 2.8 15.5 4.6 20.8 5.8 17.8 14.7 27.9 28.8 33 6.4 2.3 20.2 2.8 27.5.9 14.4-3.7 24.7-13.9 30.5-30 1.2-3.3 2.4-6.6 2.7-7.4.4-.8.7-1.7.8-2 .1-.3.4-1.2.7-2 1.5-3.8 5-14.4 5.3-15.4.1-.6.5-1.8.8-2.6.4-.8 2.2-6.2 4.2-12 1.9-5.8 3.8-11.2 4.2-12 .3-.8.7-2 .8-2.5.2-.6 2.4-7.1 4.9-14.5 2.6-7.4 4.8-13.9 4.9-14.3.1-.5 1.6-5 3.2-10l3-9.2h39.3c38.5 0 39.2 0 39.3 2v437.8c-.1 2.5-.3 2.6-2.3 1.5-1.3-.7-2.5-1.6-2.8-1.9-.3-.3-5-3.9-10.5-7.9-5.5-4.1-10.2-7.5-10.5-7.7-.2-.2-.4-65.7-.5-145.6V387.5l-10.7-.3c-9.8-.2-10.8-.1-10.8 1.5-.1 1-.1 62.7-.1 137 0 74.4-.4 135.3-.8 135.3s-1.6-.8-2.7-1.8c-1-1-3.5-2.9-5.4-4.2-4.3-3-4.8-3.4-8.4-6.3l-2.9-2.4.1-94.4c0-51.9-.1-95.3-.3-96.4-.4-1.9-1.1-2-10.5-1.9-5.6.1-10.3.4-10.6.7-.3.3-.5 39.9-.5 88.2v87.7l-2.6-1.7c-2.5-1.7-9.3-6.7-14.3-10.6l-2.5-2v-70.2c-.1-68.7-.1-70.3-2.2-74.8-5.5-12.2-17.9-18.9-30.7-16.5-3.2.6-13.6 5.6-13.6 6.5 0 .4-1.2 1.9-2.6 3.4-1.4 1.5-3.2 4.3-4 6.2-1.1 2.8-8 41.8-14.8 83.5-.3 1.9-.7 4.4-1 5.5-.2 1.1-.7 4-1 6.5-.4 2.5-.8 5.2-1 6-.1.8-.6 3.7-1 6.5-.9 5.7-1.3 8.1-1.9 11-.3 1.1-.8 4-1.1 6.5-.3 2.5-.8 5.6-1.1 7-.6 2.7-1 5.1-2 12-.4 2.5-.9 5.4-1.1 6.5-.6 2.8-3.4 20.4-3.9 24-.3 1.6-.7 4.1-1 5.5-.3 1.4-.8 4.5-1.2 7-.6 5-1.1 7.5-1.3 7.5-.1 0-.4 2-.7 4.5-.2 2.5-.5 4.5-.6 4.6-.4.2-27.2 23.6-33 28.8-7.1 6.2-7.1 6.2-9.4 3.9-1-1-3.4-3.1-5.3-4.7-3-2.4-14.7-12.8-18.4-16.1-.6-.6-3.9-3.4-7.3-6.3-6.2-5.4-6.3-5.6-7.8-15.2-.5-3.2-1.5-9.1-3-18-.7-3.6-4.2-24.1-5.1-29.5-.3-1.7-.7-4.1-.9-5.5-.1-1.4-.8-5.4-1.4-9-.6-3.6-1.3-7.9-1.6-9.5-1-5.8-1.7-10-2.2-12.5-.3-1.4-.6-3.4-.8-4.5-.9-6.1-1.7-10.5-2.5-15-.6-2.8-1.2-6.6-1.4-8.5-.3-1.9-.7-4.6-1-6-.6-2.7-5.3-31.3-6.2-37-.3-1.9-.7-4.6-1-6-.2-1.4-1.5-9-2.9-16.9-1.4-7.9-3-15-3.6-15.7-.6-.8-.8-1.4-.4-1.4s-.5-1.7-2.1-3.8c-3-3.9-8.4-8.8-9.3-8.5-.3.1-1.7-.6-3.1-1.5-3.9-2.7-17.2-2.3-22.7.6-6 3.2-10.1 7.5-13 13.8l-2.5 5.4.1 70 .1 69.9-8.2 6.1c-4.6 3.4-9.1 6.7-10 7.5-1 .8-1.8 1.4-1.8 1.2 0-.1-.1-41.4-.1-91.8v-91.5h-10.7l-10.7.1-.3 100-.3 100-10 7.2-9.9 7.3v-6.3c0-3.4-.1-63.8-.3-134.2l-.2-128-10.7-.1-10.8-.1v142.9c0 78.5-.3 142.8-.7 142.8-.5 0-2.4 1.4-4.3 3-1.9 1.7-5.3 4.3-7.5 5.8s-4.2 2.9-4.5 3.2c-1 1.1-7.9 6-8.3 6-.2 0-.4-99.6-.3-221.3l.1-221.2h39.2c21.6 0 39.3.1 39.3.1 0 .1 2.9 8.5 6.4 18.7 3.5 10.2 6.1 18.8 5.8 19.1-.3.3-.1.6.5.6.5 0 1 .6 1 1.2.2 3.3 22.6 67.6 25.3 72.6 7.8 14.5 20.4 22.3 36.7 22.7 22.1.6 36.8-9.4 44.7-30.5 2-5.3 7.9-26.1 9.1-32 .2-.8.4-1.6.4-1.8.1-.1.1-.4.2-.7 0-.2.5-1.9 1-3.7 3.4-11.4 8.6-32.8 8.3-34.9-.8-7.7-1.8-9.9-6.7-15.1-4-4.3-9.2-6-18.7-6.1-4.7 0-10.7.3-13.3.7-4.8.7-4.9.7-4.2-1.6 1.5-5.1 6.4-12.1 10.7-15.5 2.7-2 3.8-2.1 34.3-2.1 25.8-.1 31.7.1 32.8 1.3z"/><path d="M418.7 409.2c-.9.5-1.2 25.2-1 102.5 0 56 .1 102 .2 102.3.1.4 19.4.5 21.1.1.4-.1.5-203.3.1-205.1-.2-.8-19.1-.6-20.4.2z"/></svg>